<?xml version="1.0" encoding="iso-8859-1"?>
<!-- Uploaded to: SVG Repo, www.svgrepo.com, Generator: SVG Repo Mixer Tools -->
<svg fill="#000000" version="1.1" id="Layer_1" xmlns="http://www.w3.org/2000/svg" xmlns:xlink="http://www.w3.org/1999/xlink" 
	 viewBox="0 0 485.137 485.137" xml:space="preserve">
<g>
	<rect x="232.864" y="365.832" width="30" height="40"/>
	<rect x="288.864" y="300.505" width="30" height="40"/>
	<path d="M471.815,121.282c6.808-13.669,9.657-29.188,8.063-44.473c-1.904-18.247-10.107-35.45-23.099-48.441
		C441.6,13.19,421.409,4.83,399.925,4.83c-12.591,0-24.919,2.916-36.081,8.485C340.537,4.522,315.3,0.068,288.712,0.068
		c-71.325,0-144.381,32.149-200.436,88.204C9.87,166.679-19.686,276.435,13.329,363.842c-6.809,13.682-9.658,29.21-8.063,44.497
		c1.904,18.249,10.107,35.454,23.099,48.445c15.175,15.175,35.356,23.532,56.828,23.532c12.603,0,24.941-2.923,36.11-8.508
		c23.313,8.804,48.554,13.261,75.148,13.261c71.302,0,144.348-32.152,200.409-88.213C475.26,318.455,504.82,208.699,471.815,121.282
		z M375.646,375.642c-50.477,50.477-115.791,79.426-179.196,79.426c-25.218,0-48.906-4.598-70.403-13.665l-7.206-3.04l-6.618,4.167
		c-8.086,5.092-17.434,7.784-27.032,7.784c-13.458,0-26.106-5.236-35.615-14.745c-16.765-16.765-19.631-42.537-6.972-62.674
		l4.158-6.613l-3.036-7.198c-32.614-77.345-6.186-177.651,65.762-249.6c50.471-50.471,115.795-79.417,179.223-79.417
		c25.212,0,48.895,4.592,70.388,13.649l7.195,3.032l6.611-4.155c8.083-5.08,17.426-7.765,27.019-7.765
		c13.47,0,26.127,5.239,35.641,14.751c16.767,16.768,19.636,42.523,6.976,62.632l-4.165,6.615l3.036,7.203
		C474.02,203.388,447.589,303.699,375.646,375.642z"/>
</g>
</svg>